<svg width="802" height="186" viewBox="0 0 802 186" fill="none" xmlns="http://www.w3.org/2000/svg">
<g filter="url(#filter0_d_12_4)">
<path d="M79.6 43.4C88.9333 43.4 96.9333 47.3333 103.6 55.2C110.4 63.0667 113.8 73.3333 113.8 86C113.8 98.5333 112.267 116.867 109.2 141H74.2L70.2 96.2C68.8667 81.9333 65 74.8 58.6 74.8C51 74.8 46.9333 82 46.4 96.4L45 141H8.2L4 46.2H49.2L48.4 63.2C49.0667 61.8667 50.6 59.8 53 57C55.4 54.2 57.7333 51.9333 60 50.2C65.8667 45.6667 72.4 43.4 79.6 43.4ZM129.275 160.2C131.408 157.933 132.808 155.667 133.475 153.4C134.275 151.133 134.675 149 134.675 147C134.675 145.133 132.742 112.067 128.875 47.8C136.475 50.8667 144.942 52.4 154.275 52.4C162.142 52.4 169.608 51.2667 176.675 49L179.875 47.8L173.075 141.8C172.275 152.867 168.675 161.667 162.275 168.2C156.008 174.733 146.808 178 134.675 178L119.875 166.6L122.475 165.4C124.875 164.2 127.142 162.467 129.275 160.2ZM154.275 43.6C147.608 43.6 142.008 41.6 137.475 37.6C132.942 33.6 130.675 28.4 130.675 22C130.675 15.4667 132.875 10.2667 137.275 6.39999C141.808 2.4 147.408 0.399998 154.075 0.399998C160.875 0.399998 166.542 2.4 171.075 6.39999C175.608 10.4 177.875 15.6 177.875 22C177.875 28.4 175.608 33.6 171.075 37.6C166.542 41.6 160.942 43.6 154.275 43.6ZM190.891 91.4C190.891 82.2 192.157 74.2667 194.691 67.6C197.357 60.9333 200.824 55.9333 205.091 52.6C212.957 46.4667 221.691 43.4 231.291 43.4C236.091 43.4 240.491 44.4 244.491 46.4C248.624 48.2667 251.491 50.2 253.091 52.2L255.491 55L253.891 11.2H299.491L294.091 141H264.091L260.691 128C252.691 137.867 242.824 142.8 231.091 142.8C219.491 142.933 209.891 138.6 202.291 129.8C194.691 121 190.891 108.2 190.891 91.4ZM244.091 70.2C236.224 70.2 232.291 78.2 232.291 94.2C232.291 97.1333 232.491 99.9333 232.891 102.6C233.291 105.267 234.491 108.067 236.491 111C238.491 113.933 241.424 115.4 245.291 115.4C249.157 115.4 252.091 113.267 254.091 109C256.224 104.6 257.291 99.6667 257.291 94.2C257.291 78.2 252.891 70.2 244.091 70.2ZM423.022 19.8L427.022 57.8L394.822 51.4L385.822 141H346.822L337.822 51.4L305.422 57.8L309.422 19.8H423.022ZM446.502 131.2C436.902 123.2 432.102 110.533 432.102 93.2C432.102 75.8667 436.902 63.2667 446.502 55.4C456.235 47.4 469.168 43.4 485.302 43.4C501.435 43.4 514.302 47.4 523.902 55.4C533.635 63.2667 538.502 75.8667 538.502 93.2C538.502 110.533 533.635 123.2 523.902 131.2C514.302 139.067 501.435 143 485.302 143C469.168 143 456.235 139.067 446.502 131.2ZM476.902 70.6C475.302 75.1333 474.502 82.6667 474.502 93.2C474.502 103.733 475.302 111.333 476.902 116C478.502 120.533 481.302 122.8 485.302 122.8C489.302 122.8 492.102 120.533 493.702 116C495.302 111.333 496.102 103.733 496.102 93.2C496.102 82.6667 495.302 75.1333 493.702 70.6C492.102 65.9333 489.302 63.6 485.302 63.6C481.302 63.6 478.502 65.9333 476.902 70.6ZM618.908 118.8V117.2C618.508 119.467 617.441 122 615.708 124.8C614.108 127.467 612.308 129.733 610.308 131.6C608.308 133.467 605.441 135.133 601.708 136.6C598.108 138.067 593.308 138.8 587.308 138.8C581.308 138.8 575.641 137.467 570.308 134.8C564.974 132 560.841 128.2 557.908 123.4C552.308 114.467 549.508 104.667 549.508 94C549.508 83.2 551.041 67.2667 554.108 46.2H592.908V89.4C592.908 104.067 597.241 111.4 605.908 111.4C609.774 111.4 612.641 109.667 614.508 106.2C616.374 102.733 617.308 98.3333 617.308 93C617.308 92.3333 617.308 91.6 617.308 90.8L615.508 46.2H660.508L657.708 107.6C657.308 116.267 656.641 123.667 655.708 129.8C654.908 135.933 653.308 142.2 650.908 148.6C648.641 155.133 645.641 160.4 641.908 164.4C633.241 173.467 620.374 178 603.308 178C591.308 178 580.041 174.267 569.508 166.8L567.708 165.6L576.108 148.4C582.508 151.333 588.508 152.8 594.108 152.8C601.841 152.8 607.908 149.8 612.308 143.8C616.708 137.933 618.908 129.6 618.908 118.8ZM758.378 111C758.378 118.6 755.845 124.933 750.778 130C745.711 135.067 739.845 138.533 733.178 140.4C726.645 142.133 720.311 143 714.178 143C708.045 143 702.645 142.6 697.978 141.8C693.445 141 689.578 140.067 686.378 139C680.511 136.733 675.845 134.6 672.378 132.6L670.578 131.4L679.378 113.2C687.378 117.733 694.111 120 699.578 120C705.045 120 707.778 117.733 707.778 113.2C707.778 110.933 706.045 108.6 702.578 106.2C699.111 103.8 695.311 101.533 691.178 99.4C687.178 97.2667 683.445 94 679.978 89.6C676.511 85.2 674.778 80.1333 674.778 74.4C674.778 64.1333 678.645 56.4 686.378 51.2C694.111 46 704.311 43.4 716.978 43.4C723.378 43.4 729.645 43.9333 735.778 45C741.911 46.0667 746.511 47.1333 749.578 48.2L753.978 50L748.978 70.2C741.378 67.4 734.911 66 729.578 66C724.245 66 721.578 68.0667 721.578 72.2C721.578 74.2 722.845 76.1333 725.378 78C727.911 79.7333 730.978 81.4667 734.578 83.2C738.178 84.9333 741.778 86.9333 745.378 89.2C748.978 91.3333 752.045 94.3333 754.578 98.2C757.111 101.933 758.378 106.2 758.378 111ZM771.23 118.4C773.763 115.6 777.563 114.2 782.63 114.2C787.696 114.2 791.496 115.6 794.03 118.4C796.563 121.067 797.83 124.467 797.83 128.6C797.83 132.733 796.563 136.2 794.03 139C791.496 141.667 787.696 143 782.63 143C777.563 143 773.763 141.667 771.23 139C768.696 136.2 767.43 132.733 767.43 128.6C767.43 124.467 768.696 121.067 771.23 118.4Z" fill="#24FF00"/>
</g>
<defs>
<filter id="filter0_d_12_4" x="0" y="0.399994" width="801.83" height="185.6" filterUnits="userSpaceOnUse" color-interpolation-filters="sRGB">
<feFlood flood-opacity="0" result="BackgroundImageFix"/>
<feColorMatrix in="SourceAlpha" type="matrix" values="0 0 0 0 0 0 0 0 0 0 0 0 0 0 0 0 0 0 127 0" result="hardAlpha"/>
<feOffset dy="4"/>
<feGaussianBlur stdDeviation="2"/>
<feComposite in2="hardAlpha" operator="out"/>
<feColorMatrix type="matrix" values="0 0 0 0 0 0 0 0 0 0 0 0 0 0 0 0 0 0 0.3 0"/>
<feBlend mode="normal" in2="BackgroundImageFix" result="effect1_dropShadow_12_4"/>
<feBlend mode="normal" in="SourceGraphic" in2="effect1_dropShadow_12_4" result="shape"/>
</filter>
</defs>
</svg>
